%TF.GenerationSoftware,KiCad,Pcbnew,10.0.3*%
%TF.CreationDate,2026-06-17T16:16:48-04:00*%
%TF.ProjectId,PCB,5043422e-6b69-4636-9164-5f7063625858,rev?*%
%TF.SameCoordinates,Original*%
%TF.FileFunction,Copper,L1,Top*%
%TF.FilePolarity,Positive*%
%FSLAX46Y46*%
G04 Gerber Fmt 4.6, Leading zero omitted, Abs format (unit mm)*
G04 Created by KiCad (PCBNEW 10.0.3) date 2026-06-17 16:16:48*
%MOMM*%
%LPD*%
G01*
G04 APERTURE LIST*
G04 Aperture macros list*
%AMRoundRect*
0 Rectangle with rounded corners*
0 $1 Rounding radius*
0 $2 $3 $4 $5 $6 $7 $8 $9 X,Y pos of 4 corners*
0 Add a 4 corners polygon primitive as box body*
4,1,4,$2,$3,$4,$5,$6,$7,$8,$9,$2,$3,0*
0 Add four circle primitives for the rounded corners*
1,1,$1+$1,$2,$3*
1,1,$1+$1,$4,$5*
1,1,$1+$1,$6,$7*
1,1,$1+$1,$8,$9*
0 Add four rect primitives between the rounded corners*
20,1,$1+$1,$2,$3,$4,$5,0*
20,1,$1+$1,$4,$5,$6,$7,0*
20,1,$1+$1,$6,$7,$8,$9,0*
20,1,$1+$1,$8,$9,$2,$3,0*%
%AMFreePoly0*
4,1,37,0.800000,0.796148,0.878414,0.796148,1.032228,0.765552,1.177117,0.705537,1.307515,0.618408,1.418408,0.507515,1.505537,0.377117,1.565552,0.232228,1.596148,0.078414,1.596148,-0.078414,1.565552,-0.232228,1.505537,-0.377117,1.418408,-0.507515,1.307515,-0.618408,1.177117,-0.705537,1.032228,-0.765552,0.878414,-0.796148,0.800000,-0.796148,0.800000,-0.800000,-1.400000,-0.800000,
-1.403843,-0.796157,-1.439018,-0.796157,-1.511114,-0.766294,-1.566294,-0.711114,-1.596157,-0.639018,-1.596157,-0.603843,-1.600000,-0.600000,-1.600000,0.600000,-1.596157,0.603843,-1.596157,0.639018,-1.566294,0.711114,-1.511114,0.766294,-1.439018,0.796157,-1.403843,0.796157,-1.400000,0.800000,0.800000,0.800000,0.800000,0.796148,0.800000,0.796148,$1*%
%AMFreePoly1*
4,1,37,1.403843,0.796157,1.439018,0.796157,1.511114,0.766294,1.566294,0.711114,1.596157,0.639018,1.596157,0.603843,1.600000,0.600000,1.600000,-0.600000,1.596157,-0.603843,1.596157,-0.639018,1.566294,-0.711114,1.511114,-0.766294,1.439018,-0.796157,1.403843,-0.796157,1.400000,-0.800000,-0.800000,-0.800000,-0.800000,-0.796148,-0.878414,-0.796148,-1.032228,-0.765552,-1.177117,-0.705537,
-1.307515,-0.618408,-1.418408,-0.507515,-1.505537,-0.377117,-1.565552,-0.232228,-1.596148,-0.078414,-1.596148,0.078414,-1.565552,0.232228,-1.505537,0.377117,-1.418408,0.507515,-1.307515,0.618408,-1.177117,0.705537,-1.032228,0.765552,-0.878414,0.796148,-0.800000,0.796148,-0.800000,0.800000,1.400000,0.800000,1.403843,0.796157,1.403843,0.796157,$1*%
%AMFreePoly2*
4,1,37,0.603843,0.796157,0.639018,0.796157,0.711114,0.766294,0.766294,0.711114,0.796157,0.639018,0.796157,0.603843,0.800000,0.600000,0.800000,-0.600000,0.796157,-0.603843,0.796157,-0.639018,0.766294,-0.711114,0.711114,-0.766294,0.639018,-0.796157,0.603843,-0.796157,0.600000,-0.800000,0.000000,-0.800000,0.000000,-0.796148,-0.078414,-0.796148,-0.232228,-0.765552,-0.377117,-0.705537,
-0.507515,-0.618408,-0.618408,-0.507515,-0.705537,-0.377117,-0.765552,-0.232228,-0.796148,-0.078414,-0.796148,0.078414,-0.765552,0.232228,-0.705537,0.377117,-0.618408,0.507515,-0.507515,0.618408,-0.377117,0.705537,-0.232228,0.765552,-0.078414,0.796148,0.000000,0.796148,0.000000,0.800000,0.600000,0.800000,0.603843,0.796157,0.603843,0.796157,$1*%
%AMFreePoly3*
4,1,37,0.000000,0.796148,0.078414,0.796148,0.232228,0.765552,0.377117,0.705537,0.507515,0.618408,0.618408,0.507515,0.705537,0.377117,0.765552,0.232228,0.796148,0.078414,0.796148,-0.078414,0.765552,-0.232228,0.705537,-0.377117,0.618408,-0.507515,0.507515,-0.618408,0.377117,-0.705537,0.232228,-0.765552,0.078414,-0.796148,0.000000,-0.796148,0.000000,-0.800000,-0.600000,-0.800000,
-0.603843,-0.796157,-0.639018,-0.796157,-0.711114,-0.766294,-0.766294,-0.711114,-0.796157,-0.639018,-0.796157,-0.603843,-0.800000,-0.600000,-0.800000,0.600000,-0.796157,0.603843,-0.796157,0.639018,-0.766294,0.711114,-0.711114,0.766294,-0.639018,0.796157,-0.603843,0.796157,-0.600000,0.800000,0.000000,0.800000,0.000000,0.796148,0.000000,0.796148,$1*%
G04 Aperture macros list end*
%TA.AperFunction,ComponentPad*%
%ADD10C,2.200000*%
%TD*%
%TA.AperFunction,SMDPad,CuDef*%
%ADD11RoundRect,0.250000X-0.450000X0.350000X-0.450000X-0.350000X0.450000X-0.350000X0.450000X0.350000X0*%
%TD*%
%TA.AperFunction,SMDPad,CuDef*%
%ADD12RoundRect,0.250001X-1.074999X0.462499X-1.074999X-0.462499X1.074999X-0.462499X1.074999X0.462499X0*%
%TD*%
%TA.AperFunction,SMDPad,CuDef*%
%ADD13FreePoly0,90.000000*%
%TD*%
%TA.AperFunction,ComponentPad*%
%ADD14RoundRect,0.200000X0.600000X-0.600000X0.600000X0.600000X-0.600000X0.600000X-0.600000X-0.600000X0*%
%TD*%
%TA.AperFunction,SMDPad,CuDef*%
%ADD15RoundRect,0.800000X0.000010X-0.800000X0.000010X0.800000X-0.000010X0.800000X-0.000010X-0.800000X0*%
%TD*%
%TA.AperFunction,ComponentPad*%
%ADD16C,1.600000*%
%TD*%
%TA.AperFunction,SMDPad,CuDef*%
%ADD17FreePoly1,90.000000*%
%TD*%
%TA.AperFunction,ComponentPad*%
%ADD18FreePoly2,90.000000*%
%TD*%
%TA.AperFunction,ComponentPad*%
%ADD19FreePoly3,90.000000*%
%TD*%
%TA.AperFunction,Conductor*%
%ADD20C,0.200000*%
%TD*%
G04 APERTURE END LIST*
D10*
%TO.P,SW4,1,1_1*%
%TO.N,Net-(A1-GPIO22)*%
X172040000Y-114920000D03*
%TO.P,SW4,2,2_2*%
%TO.N,Net-(A1-3V3)*%
X165690000Y-117460000D03*
%TD*%
%TO.P,SW3,1,1_1*%
%TO.N,Net-(A1-GPIO26_ADC0)*%
X150540000Y-114920000D03*
%TO.P,SW3,2,2_2*%
%TO.N,Net-(A1-3V3)*%
X144190000Y-117460000D03*
%TD*%
%TO.P,SW2,1,1_1*%
%TO.N,Net-(A1-GPIO27_ADC1)*%
X129040000Y-115000000D03*
%TO.P,SW2,2,2_2*%
%TO.N,Net-(A1-3V3)*%
X122690000Y-117540000D03*
%TD*%
%TO.P,SW1,1,1_1*%
%TO.N,Net-(A1-GPIO28_ADC2)*%
X107460000Y-114920000D03*
%TO.P,SW1,2,2_2*%
%TO.N,Net-(A1-3V3)*%
X101110000Y-117460000D03*
%TD*%
D11*
%TO.P,R1,1*%
%TO.N,Net-(D1-A)*%
X165500000Y-101000000D03*
%TO.P,R1,2*%
%TO.N,Net-(A1-GPIO13)*%
X165500000Y-103000000D03*
%TD*%
D12*
%TO.P,D1,1,K_1*%
%TO.N,Net-(D1-K)*%
X165500000Y-93012500D03*
%TO.P,D1,2,A_2*%
%TO.N,Net-(D1-A)*%
X165500000Y-95987500D03*
%TD*%
D13*
%TO.P,A1,1,GPIO0_1*%
%TO.N,unconnected-(A1-GPIO0-Pad1)*%
X96980000Y-104080000D03*
D14*
%TO.N,unconnected-(A1-GPIO0-Pad1)_1*%
X96980000Y-103280000D03*
D15*
%TO.P,A1,2,GPIO1_2*%
%TO.N,unconnected-(A1-GPIO1-Pad2)*%
X99520000Y-104080000D03*
D16*
%TO.N,unconnected-(A1-GPIO1-Pad2)_1*%
X99520000Y-103280000D03*
D17*
%TO.P,A1,3,GND_3*%
%TO.N,Net-(D1-K)*%
X102060000Y-104080000D03*
D18*
X102060000Y-103280000D03*
D15*
%TO.P,A1,4,GPIO2_4*%
%TO.N,unconnected-(A1-GPIO2-Pad4)*%
X104600000Y-104080000D03*
D16*
%TO.N,unconnected-(A1-GPIO2-Pad4)_1*%
X104600000Y-103280000D03*
D15*
%TO.P,A1,5,GPIO3_5*%
%TO.N,unconnected-(A1-GPIO3-Pad5)_1*%
X107140000Y-104080000D03*
D16*
%TO.N,unconnected-(A1-GPIO3-Pad5)*%
X107140000Y-103280000D03*
D15*
%TO.P,A1,6,GPIO4_6*%
%TO.N,unconnected-(A1-GPIO4-Pad6)*%
X109680000Y-104080000D03*
D16*
%TO.N,unconnected-(A1-GPIO4-Pad6)_1*%
X109680000Y-103280000D03*
D15*
%TO.P,A1,7,GPIO5_7*%
%TO.N,unconnected-(A1-GPIO5-Pad7)_1*%
X112220000Y-104080000D03*
D16*
%TO.N,unconnected-(A1-GPIO5-Pad7)*%
X112220000Y-103280000D03*
D17*
%TO.P,A1,8,GND_8*%
%TO.N,Net-(D1-K)*%
X114760000Y-104080000D03*
D18*
X114760000Y-103280000D03*
D15*
%TO.P,A1,9,GPIO6_9*%
%TO.N,unconnected-(A1-GPIO6-Pad9)*%
X117300000Y-104080000D03*
D16*
%TO.N,unconnected-(A1-GPIO6-Pad9)_1*%
X117300000Y-103280000D03*
D15*
%TO.P,A1,10,GPIO7_10*%
%TO.N,unconnected-(A1-GPIO7-Pad10)_1*%
X119840000Y-104080000D03*
D16*
%TO.N,unconnected-(A1-GPIO7-Pad10)*%
X119840000Y-103280000D03*
D15*
%TO.P,A1,11,GPIO8_11*%
%TO.N,unconnected-(A1-GPIO8-Pad11)_1*%
X122380000Y-104080000D03*
D16*
%TO.N,unconnected-(A1-GPIO8-Pad11)*%
X122380000Y-103280000D03*
D15*
%TO.P,A1,12,GPIO9_12*%
%TO.N,unconnected-(A1-GPIO9-Pad12)*%
X124920000Y-104080000D03*
D16*
%TO.N,unconnected-(A1-GPIO9-Pad12)_1*%
X124920000Y-103280000D03*
D17*
%TO.P,A1,13,GND_13*%
%TO.N,Net-(D1-K)*%
X127460000Y-104080000D03*
D18*
X127460000Y-103280000D03*
D15*
%TO.P,A1,14,GPIO10_14*%
%TO.N,unconnected-(A1-GPIO10-Pad14)_1*%
X130000000Y-104080000D03*
D16*
%TO.N,unconnected-(A1-GPIO10-Pad14)*%
X130000000Y-103280000D03*
D15*
%TO.P,A1,15,GPIO11_15*%
%TO.N,unconnected-(A1-GPIO11-Pad15)*%
X132540000Y-104080000D03*
D16*
%TO.N,unconnected-(A1-GPIO11-Pad15)_1*%
X132540000Y-103280000D03*
D15*
%TO.P,A1,16,GPIO12_16*%
%TO.N,unconnected-(A1-GPIO12-Pad16)*%
X135080000Y-104080000D03*
D16*
%TO.N,unconnected-(A1-GPIO12-Pad16)_1*%
X135080000Y-103280000D03*
D15*
%TO.P,A1,17,GPIO13_17*%
%TO.N,Net-(A1-GPIO13)*%
X137620000Y-104080000D03*
D16*
X137620000Y-103280000D03*
D17*
%TO.P,A1,18,GND_18*%
%TO.N,Net-(D1-K)*%
X140160000Y-104080000D03*
D18*
X140160000Y-103280000D03*
D15*
%TO.P,A1,19,GPIO14_19*%
%TO.N,unconnected-(A1-GPIO14-Pad19)_1*%
X142700000Y-104080000D03*
D16*
%TO.N,unconnected-(A1-GPIO14-Pad19)*%
X142700000Y-103280000D03*
D15*
%TO.P,A1,20,GPIO15_20*%
%TO.N,unconnected-(A1-GPIO15-Pad20)_1*%
X145240000Y-104080000D03*
D16*
%TO.N,unconnected-(A1-GPIO15-Pad20)*%
X145240000Y-103280000D03*
%TO.P,A1,21,GPIO16_21*%
%TO.N,unconnected-(A1-GPIO16-Pad21)*%
X145240000Y-85500000D03*
D15*
%TO.N,unconnected-(A1-GPIO16-Pad21)_1*%
X145240000Y-84700000D03*
D16*
%TO.P,A1,22,GPIO17_22*%
%TO.N,unconnected-(A1-GPIO17-Pad22)_1*%
X142700000Y-85500000D03*
D15*
%TO.N,unconnected-(A1-GPIO17-Pad22)*%
X142700000Y-84700000D03*
D19*
%TO.P,A1,23,GND_23*%
%TO.N,Net-(D1-K)*%
X140160000Y-85500000D03*
D13*
X140160000Y-84700000D03*
D16*
%TO.P,A1,24,GPIO18_24*%
%TO.N,unconnected-(A1-GPIO18-Pad24)_1*%
X137620000Y-85500000D03*
D15*
%TO.N,unconnected-(A1-GPIO18-Pad24)*%
X137620000Y-84700000D03*
D16*
%TO.P,A1,25,GPIO19_25*%
%TO.N,unconnected-(A1-GPIO19-Pad25)*%
X135080000Y-85500000D03*
D15*
%TO.N,unconnected-(A1-GPIO19-Pad25)_1*%
X135080000Y-84700000D03*
D16*
%TO.P,A1,26,GPIO20_26*%
%TO.N,unconnected-(A1-GPIO20-Pad26)*%
X132540000Y-85500000D03*
D15*
%TO.N,unconnected-(A1-GPIO20-Pad26)_1*%
X132540000Y-84700000D03*
D16*
%TO.P,A1,27,GPIO21_27*%
%TO.N,unconnected-(A1-GPIO21-Pad27)*%
X130000000Y-85500000D03*
D15*
%TO.N,unconnected-(A1-GPIO21-Pad27)_1*%
X130000000Y-84700000D03*
D19*
%TO.P,A1,28,GND_28*%
%TO.N,Net-(D1-K)*%
X127460000Y-85500000D03*
D13*
X127460000Y-84700000D03*
D16*
%TO.P,A1,29,GPIO22_29*%
%TO.N,Net-(A1-GPIO22)*%
X124920000Y-85500000D03*
D15*
X124920000Y-84700000D03*
D16*
%TO.P,A1,30,RUN_30*%
%TO.N,unconnected-(A1-RUN-Pad30)*%
X122380000Y-85500000D03*
D15*
%TO.N,unconnected-(A1-RUN-Pad30)_1*%
X122380000Y-84700000D03*
D16*
%TO.P,A1,31,GPIO26_ADC0_31*%
%TO.N,Net-(A1-GPIO26_ADC0)*%
X119840000Y-85500000D03*
D15*
X119840000Y-84700000D03*
D16*
%TO.P,A1,32,GPIO27_ADC1_32*%
%TO.N,Net-(A1-GPIO27_ADC1)*%
X117300000Y-85500000D03*
D15*
X117300000Y-84700000D03*
D19*
%TO.P,A1,33,AGND_33*%
%TO.N,unconnected-(A1-AGND-Pad33)_1*%
X114760000Y-85500000D03*
D13*
%TO.N,unconnected-(A1-AGND-Pad33)*%
X114760000Y-84700000D03*
D16*
%TO.P,A1,34,GPIO28_ADC2_34*%
%TO.N,Net-(A1-GPIO28_ADC2)*%
X112220000Y-85500000D03*
D15*
X112220000Y-84700000D03*
D16*
%TO.P,A1,35,ADC_VREF_35*%
%TO.N,unconnected-(A1-ADC_VREF-Pad35)_1*%
X109680000Y-85500000D03*
D15*
%TO.N,unconnected-(A1-ADC_VREF-Pad35)*%
X109680000Y-84700000D03*
D16*
%TO.P,A1,36,3V3_36*%
%TO.N,Net-(A1-3V3)*%
X107140000Y-85500000D03*
D15*
X107140000Y-84700000D03*
D16*
%TO.P,A1,37,3V3_EN_37*%
%TO.N,unconnected-(A1-3V3_EN-Pad37)*%
X104600000Y-85500000D03*
D15*
%TO.N,unconnected-(A1-3V3_EN-Pad37)_1*%
X104600000Y-84700000D03*
D19*
%TO.P,A1,38,GND_38*%
%TO.N,Net-(D1-K)*%
X102060000Y-85500000D03*
D13*
X102060000Y-84700000D03*
D16*
%TO.P,A1,39,VSYS_39*%
%TO.N,unconnected-(A1-VSYS-Pad39)_1*%
X99520000Y-85500000D03*
D15*
%TO.N,unconnected-(A1-VSYS-Pad39)*%
X99520000Y-84700000D03*
D16*
%TO.P,A1,40,VBUS_40*%
%TO.N,unconnected-(A1-VBUS-Pad40)_1*%
X96980000Y-85500000D03*
D15*
%TO.N,unconnected-(A1-VBUS-Pad40)*%
X96980000Y-84700000D03*
%TD*%
%TO.N,Net-(D1-A)*%
D20*
X165500000Y-101000000D02*
X165500000Y-95987500D01*
%TO.N,Net-(A1-GPIO13)*%
X165500000Y-103000000D02*
X162500000Y-106000000D01*
X139540000Y-106000000D02*
X137620000Y-104080000D01*
X162500000Y-106000000D02*
X139540000Y-106000000D01*
%TO.N,Net-(A1-GPIO22)*%
X172040000Y-114920000D02*
X172040000Y-97230256D01*
X157604744Y-82795000D02*
X127002292Y-82795000D01*
X172040000Y-97230256D02*
X157604744Y-82795000D01*
X127002292Y-82795000D02*
X124920000Y-84877292D01*
X124920000Y-84877292D02*
X124920000Y-85500000D01*
%TO.N,Net-(A1-GPIO26_ADC0)*%
X150540000Y-114920000D02*
X146104364Y-114920000D01*
X146104364Y-114920000D02*
X136500000Y-105315636D01*
X136500000Y-105315636D02*
X136500000Y-99411745D01*
X136500000Y-99411745D02*
X126988255Y-89900000D01*
X126988255Y-89900000D02*
X124240000Y-89900000D01*
X124240000Y-89900000D02*
X119840000Y-85500000D01*
%TO.N,Net-(A1-3V3)*%
X165690000Y-117460000D02*
X144190000Y-117460000D01*
X144190000Y-117460000D02*
X122770000Y-117460000D01*
X122770000Y-117460000D02*
X122690000Y-117540000D01*
X122690000Y-117540000D02*
X122440000Y-117540000D01*
X122440000Y-117540000D02*
X122360000Y-117460000D01*
X122360000Y-117460000D02*
X101110000Y-117460000D01*
%TO.N,Net-(A1-GPIO27_ADC1)*%
X129040000Y-115000000D02*
X123500000Y-109460000D01*
X123500000Y-109460000D02*
X123500000Y-91700000D01*
X123500000Y-91700000D02*
X117300000Y-85500000D01*
%TO.N,Net-(A1-3V3)*%
X101110000Y-117460000D02*
X103165000Y-115405000D01*
X103165000Y-115405000D02*
X103165000Y-99535000D01*
X103165000Y-99535000D02*
X102560000Y-98930000D01*
X102560000Y-98930000D02*
X102560000Y-90080000D01*
X102560000Y-90080000D02*
X107140000Y-85500000D01*
%TO.N,Net-(A1-GPIO28_ADC2)*%
X107460000Y-114920000D02*
X113400000Y-108980000D01*
X113400000Y-108980000D02*
X113400000Y-86680000D01*
X113400000Y-86680000D02*
X112220000Y-85500000D01*
%TO.N,Net-(D1-K)*%
X159087500Y-86600000D02*
X142060000Y-86600000D01*
X142060000Y-86600000D02*
X140160000Y-84700000D01*
X165500000Y-93012500D02*
X159087500Y-86600000D01*
%TD*%
M02*
