M48
; DRILL file KiCad 10.0.3 date 2026-06-17T16:16:32
; FORMAT={3:3/ absolute / metric / suppress leading zeros}
; #@! TF.CreationDate,2026-06-17T16:16:32-04:00
; #@! TF.GenerationSoftware,Kicad,Pcbnew,10.0.3
; #@! TF.FileFunction,MixedPlating,1,2
FMAT,2
METRIC,TZ
; #@! TA.AperFunction,Plated,PTH,ComponentDrill
T1C1.000
; #@! TA.AperFunction,Plated,PTH,ComponentDrill
T2C1.500
; #@! TA.AperFunction,NonPlated,NPTH,ComponentDrill
T3C1.700
; #@! TA.AperFunction,NonPlated,NPTH,ComponentDrill
T4C1.850
; #@! TA.AperFunction,NonPlated,NPTH,ComponentDrill
T5C2.200
; #@! TA.AperFunction,NonPlated,NPTH,ComponentDrill
T6C4.000
%
G90
G05
T1
X96980Y-85500
X96980Y-103280
X99520Y-85500
X99520Y-103280
X102060Y-85500
X102060Y-103280
X104600Y-85500
X104600Y-103280
X107140Y-85500
X107140Y-103280
X109680Y-85500
X109680Y-103280
X112220Y-85500
X112220Y-103280
X114760Y-85500
X114760Y-103280
X117300Y-85500
X117300Y-103280
X119840Y-85500
X119840Y-103280
X122380Y-85500
X122380Y-103280
X124920Y-85500
X124920Y-103280
X127460Y-85500
X127460Y-103280
X130000Y-85500
X130000Y-103280
X132540Y-85500
X132540Y-103280
X135080Y-85500
X135080Y-103280
X137620Y-85500
X137620Y-103280
X140160Y-85500
X140160Y-103280
X142700Y-85500
X142700Y-103280
X145240Y-85500
X145240Y-103280
T2
X101110Y-117460
X107460Y-114920
X122690Y-117540
X129040Y-115000
X144190Y-117460
X150540Y-114920
X165690Y-117460
X172040Y-114920
T3
X99840Y-120000
X110000Y-120000
X121420Y-120080
X131580Y-120080
X142920Y-120000
X153080Y-120000
X164420Y-120000
X174580Y-120000
T4
X100140Y-91965
X100140Y-96815
T5
X93000Y-81000
X93000Y-132000
X97110Y-91665
X97110Y-97115
X181000Y-81000
X181000Y-132000
T6
X104920Y-120000
X126500Y-120080
X148000Y-120000
X169500Y-120000
M30
