%TF.GenerationSoftware,KiCad,Pcbnew,10.0.3*%
%TF.CreationDate,2026-06-21T20:03:57-04:00*%
%TF.ProjectId,PCB,5043422e-6b69-4636-9164-5f7063625858,rev?*%
%TF.SameCoordinates,Original*%
%TF.FileFunction,Soldermask,Bot*%
%TF.FilePolarity,Negative*%
%FSLAX46Y46*%
G04 Gerber Fmt 4.6, Leading zero omitted, Abs format (unit mm)*
G04 Created by KiCad (PCBNEW 10.0.3) date 2026-06-21 20:03:57*
%MOMM*%
%LPD*%
G01*
G04 APERTURE LIST*
G04 Aperture macros list*
%AMRoundRect*
0 Rectangle with rounded corners*
0 $1 Rounding radius*
0 $2 $3 $4 $5 $6 $7 $8 $9 X,Y pos of 4 corners*
0 Add a 4 corners polygon primitive as box body*
4,1,4,$2,$3,$4,$5,$6,$7,$8,$9,$2,$3,0*
0 Add four circle primitives for the rounded corners*
1,1,$1+$1,$2,$3*
1,1,$1+$1,$4,$5*
1,1,$1+$1,$6,$7*
1,1,$1+$1,$8,$9*
0 Add four rect primitives between the rounded corners*
20,1,$1+$1,$2,$3,$4,$5,0*
20,1,$1+$1,$4,$5,$6,$7,0*
20,1,$1+$1,$6,$7,$8,$9,0*
20,1,$1+$1,$8,$9,$2,$3,0*%
%AMFreePoly0*
4,1,37,0.603843,0.796157,0.639018,0.796157,0.711114,0.766294,0.766294,0.711114,0.796157,0.639018,0.796157,0.603843,0.800000,0.600000,0.800000,-0.600000,0.796157,-0.603843,0.796157,-0.639018,0.766294,-0.711114,0.711114,-0.766294,0.639018,-0.796157,0.603843,-0.796157,0.600000,-0.800000,0.000000,-0.800000,0.000000,-0.796148,-0.078414,-0.796148,-0.232228,-0.765552,-0.377117,-0.705537,
-0.507515,-0.618408,-0.618408,-0.507515,-0.705537,-0.377117,-0.765552,-0.232228,-0.796148,-0.078414,-0.796148,0.078414,-0.765552,0.232228,-0.705537,0.377117,-0.618408,0.507515,-0.507515,0.618408,-0.377117,0.705537,-0.232228,0.765552,-0.078414,0.796148,0.000000,0.796148,0.000000,0.800000,0.600000,0.800000,0.603843,0.796157,0.603843,0.796157,$1*%
%AMFreePoly1*
4,1,37,0.000000,0.796148,0.078414,0.796148,0.232228,0.765552,0.377117,0.705537,0.507515,0.618408,0.618408,0.507515,0.705537,0.377117,0.765552,0.232228,0.796148,0.078414,0.796148,-0.078414,0.765552,-0.232228,0.705537,-0.377117,0.618408,-0.507515,0.507515,-0.618408,0.377117,-0.705537,0.232228,-0.765552,0.078414,-0.796148,0.000000,-0.796148,0.000000,-0.800000,-0.600000,-0.800000,
-0.603843,-0.796157,-0.639018,-0.796157,-0.711114,-0.766294,-0.766294,-0.711114,-0.796157,-0.639018,-0.796157,-0.603843,-0.800000,-0.600000,-0.800000,0.600000,-0.796157,0.603843,-0.796157,0.639018,-0.766294,0.711114,-0.711114,0.766294,-0.639018,0.796157,-0.603843,0.796157,-0.600000,0.800000,0.000000,0.800000,0.000000,0.796148,0.000000,0.796148,$1*%
G04 Aperture macros list end*
%ADD10C,2.200000*%
%ADD11C,1.850000*%
%ADD12RoundRect,0.200000X0.600000X-0.600000X0.600000X0.600000X-0.600000X0.600000X-0.600000X-0.600000X0*%
%ADD13C,1.600000*%
%ADD14FreePoly0,90.000000*%
%ADD15FreePoly1,90.000000*%
%ADD16C,1.700000*%
%ADD17C,4.000000*%
G04 APERTURE END LIST*
D10*
%TO.C,A1*%
X97110000Y-97115000D03*
D11*
X100140000Y-96815000D03*
X100140000Y-91965000D03*
D10*
X97110000Y-91665000D03*
D12*
X96980000Y-103280000D03*
D13*
X99520000Y-103280000D03*
D14*
X102060000Y-103280000D03*
D13*
X104600000Y-103280000D03*
X107140000Y-103280000D03*
X109680000Y-103280000D03*
X112220000Y-103280000D03*
D14*
X114760000Y-103280000D03*
D13*
X117300000Y-103280000D03*
X119840000Y-103280000D03*
X122380000Y-103280000D03*
X124920000Y-103280000D03*
D14*
X127460000Y-103280000D03*
D13*
X130000000Y-103280000D03*
X132540000Y-103280000D03*
X135080000Y-103280000D03*
X137620000Y-103280000D03*
D14*
X140160000Y-103280000D03*
D13*
X142700000Y-103280000D03*
X145240000Y-103280000D03*
X145240000Y-85500000D03*
X142700000Y-85500000D03*
D15*
X140160000Y-85500000D03*
D13*
X137620000Y-85500000D03*
X135080000Y-85500000D03*
X132540000Y-85500000D03*
X130000000Y-85500000D03*
D15*
X127460000Y-85500000D03*
D13*
X124920000Y-85500000D03*
X122380000Y-85500000D03*
X119840000Y-85500000D03*
X117300000Y-85500000D03*
D15*
X114760000Y-85500000D03*
D13*
X112220000Y-85500000D03*
X109680000Y-85500000D03*
X107140000Y-85500000D03*
X104600000Y-85500000D03*
D15*
X102060000Y-85500000D03*
D13*
X99520000Y-85500000D03*
X96980000Y-85500000D03*
%TD*%
D10*
%TO.C,H4*%
X181000000Y-81000000D03*
%TD*%
D16*
%TO.C,SW1*%
X99840000Y-120000000D03*
D17*
X104920000Y-120000000D03*
D16*
X110000000Y-120000000D03*
D10*
X107460000Y-114920000D03*
X101110000Y-117460000D03*
%TD*%
%TO.C,H3*%
X181000000Y-132000000D03*
%TD*%
D16*
%TO.C,SW2*%
X121420000Y-120080000D03*
D17*
X126500000Y-120080000D03*
D16*
X131580000Y-120080000D03*
D10*
X129040000Y-115000000D03*
X122690000Y-117540000D03*
%TD*%
%TO.C,H2*%
X93000000Y-81000000D03*
%TD*%
%TO.C,H1*%
X93000000Y-132000000D03*
%TD*%
D16*
%TO.C,SW4*%
X164420000Y-120000000D03*
D17*
X169500000Y-120000000D03*
D16*
X174580000Y-120000000D03*
D10*
X172040000Y-114920000D03*
X165690000Y-117460000D03*
%TD*%
D16*
%TO.C,SW3*%
X142920000Y-120000000D03*
D17*
X148000000Y-120000000D03*
D16*
X153080000Y-120000000D03*
D10*
X150540000Y-114920000D03*
X144190000Y-117460000D03*
%TD*%
M02*
